<svg xmlns="http://www.w3.org/2000/svg" viewBox="0 0 800 500"><rect width="800" height="500" fill="#ede7de"/><g transform="translate(70 46)"><rect width="190" height="390" rx="28" fill="#111821"/><rect x="12" y="20" width="166" height="350" rx="18" fill="#fff"/><text x="26" y="48" font-family="Arial" font-weight="700" font-size="12" fill="#0f2037">WORK WITH ROI</text><g fill="#d9d0c5"><rect x="25" y="70" width="44" height="56"/><rect x="75" y="70" width="44" height="56"/><rect x="125" y="70" width="44" height="56"/><rect x="25" y="132" width="44" height="56"/><rect x="75" y="132" width="44" height="56"/><rect x="125" y="132" width="44" height="56"/><rect x="25" y="194" width="44" height="56"/><rect x="75" y="194" width="44" height="56"/><rect x="125" y="194" width="44" height="56"/></g><g fill="#0f2037"><rect x="25" y="265" width="144" height="8"/><rect x="25" y="282" width="100" height="7" opacity=".3"/></g></g>
<g transform="translate(300 68)"><rect width="150" height="300" rx="4" fill="#fff" stroke="#d4cec5"/><rect x="14" y="14" width="122" height="155" fill="#cabca9"/><text x="20" y="208" font-family="Georgia" font-size="26" fill="#0f2037">NEW</text><text x="20" y="237" font-family="Georgia" font-size="26" fill="#0f2037">LISTING</text><rect x="20" y="255" width="72" height="4" fill="#f04f18"/></g><g transform="translate(468 68)"><rect width="150" height="300" rx="4" fill="#132238"/><text x="20" y="52" font-family="Georgia" font-size="24" fill="#fff">MARKET</text><text x="20" y="81" font-family="Georgia" font-size="24" fill="#fff">UPDATE</text><circle cx="75" cy="165" r="51" fill="#d8c6ae"/><rect x="20" y="238" width="108" height="7" fill="#fff" opacity=".7"/></g><g transform="translate(636 68)"><rect width="110" height="300" rx="4" fill="#fff" stroke="#d4cec5"/><rect x="12" y="14" width="86" height="140" fill="#cfc5b8"/><text x="17" y="190" font-family="Georgia" font-size="18" fill="#0f2037">BUYER</text><text x="17" y="213" font-family="Georgia" font-size="18" fill="#0f2037">TIPS</text></g></svg>
